# Apple ModelIO OBJ File: Candle
mtllib Candle.mtl
g candle.002_Cylinder.042_None
v 0.248448 1.2494 -1.18021
v 0.248448 1.38565 -1.18021
v 0.259378 1.38147 -1.17569
v 0.259378 1.2494 -1.17569
v 0.263905 1.38347 -1.16476
v 0.263905 1.2494 -1.16476
v 0.259378 1.37287 -1.15383
v 0.259378 1.2494 -1.15383
v 0.248448 1.37802 -1.1493
v 0.248448 1.2494 -1.1493
v 0.237519 1.38004 -1.15383
v 0.237519 1.2494 -1.15383
v 0.232991 1.38347 -1.16476
v 0.232991 1.2494 -1.16476
v 0.237857 1.38284 -1.16476
v 0.24096 1.38051 -1.15727
v 0.237987 1.37934 -1.16489
v 0.24109 1.37701 -1.1574
v 0.237519 1.38706 -1.17569
v 0.237519 1.2494 -1.17569
v 0.248446 1.38433 -1.17535
v 0.255936 1.38142 -1.17225
v 0.259041 1.38302 -1.16475
v 0.255935 1.37544 -1.15727
v 0.248452 1.37917 -1.15416
v 0.240959 1.38534 -1.17225
v 0.247846 1.37839 -1.16562
v 0.247542 1.37814 -1.16489
v 0.247609 1.38122 -1.16488
v 0.247912 1.38148 -1.16561
v 0.256066 1.37194 -1.1574
v 0.248582 1.37567 -1.15429
v 0.259171 1.37952 -1.16488
v 0.256066 1.37792 -1.17238
v 0.24109 1.38184 -1.17238
v 0.248576 1.38083 -1.17548
v 0.248578 1.37828 -1.16592
v 0.249311 1.37799 -1.16562
v 0.249615 1.37818 -1.16489
v 0.249311 1.37739 -1.16416
v 0.248579 1.37779 -1.16385
v 0.247846 1.37791 -1.16416
v 0.248646 1.38087 -1.16384
v 0.247912 1.381 -1.16414
v 0.249377 1.38048 -1.16414
v 0.249681 1.38127 -1.16488
v 0.249377 1.38108 -1.16561
v 0.248644 1.38137 -1.16591
vn 0.3827 0 -0.9239
vn 0.9239 0 -0.3827
vn 0.9239 0 0.3827
vn 0.3827 0 0.9239
vn -0.3827 0 0.9239
vn -0.9239 0 0.3827
vn 0.928 0.0484 -0.3693
vn -0.9239 0 -0.3827
vn -0.3827 0 -0.9239
vn 0 -1 0
vn 0.2512 0.9325 0.2596
vn -0.1192 0.9826 -0.1426
vn -0.0952 0.7279 0.6791
vn 0.4868 0.8547 0.1803
vn 0.0846 0.9709 0.2239
vn 0.1217 0.9606 0.2497
vn 0.1157 0.9278 0.3546
vn 0.2276 0.9409 0.2509
vn -0.9262 0.0211 -0.3766
vn -0.3741 0.021 -0.9272
vn -0.919 -0.0489 0.3912
vn 0.9213 0.0196 0.3882
vn 0.3898 0.0492 -0.9196
vn -0.9165 -0.019 -0.3995
vn -0.3984 -0.0493 0.9159
vn 0.3803 -0.0207 0.9246
vn 0.2602 0.9329 0.2491
vn -0.1404 0.9778 -0.1557
vn -0.1042 0.7179 0.6883
vn 0.501 0.8455 0.1848
vn 0.0849 0.9729 0.2151
vn 0.1208 0.9611 0.2483
vn 0.1162 0.9265 0.3578
vn 0.2315 0.9402 0.2498
vn -0.3821 0.0052 0.9241
vn 0.9311 -0.0212 0.3642
vn 0.3806 -0.0052 -0.9247
vn -0.3814 0.0112 -0.9244
vn -0.9217 0.0185 0.3874
vn 0.3785 -0.0111 0.9256
vn 0.9254 -0.0186 -0.3785
vt 0.950293 0.436963
vt 0.950293 0.691943
vt 0.886548 0.691943
vt 0.886548 0.436963
vt 0.822803 0.691943
vt 0.822803 0.436963
vt 0.759058 0.691943
vt 0.759058 0.436963
vt 0.695312 0.691943
vt 0.695312 0.436963
vt 0.631567 0.691943
vt 0.631567 0.436963
vt 0.567822 0.691943
vt 0.567822 0.436963
vt 0.11076 0.250011
vt 0.151549 0.151536
vt 0.504077 0.691943
vt 0.504077 0.436963
vt 0.440332 0.691943
vt 0.440332 0.436963
vt 0.580294 0.419706
vt 0.75 0.49
vt 0.919706 0.419706
vt 0.51 0.25
vt 0.580294 0.080294
vt 0.75 0.01
vt 0.919706 0.080294
vt 0.99 0.25
vt 0.249973 0.389251
vt 0.348468 0.348427
vt 0.354271 0.354271
vt 0.25 0.397462
vt 0.389212 0.250046
vt 0.397462 0.25
vt 0.348477 0.15145
vt 0.354271 0.145729
vt 0.250025 0.110769
vt 0.25 0.102538
vt 0.145729 0.145729
vt 0.102538 0.25
vt 0.151535 0.348487
vt 0.145729 0.354271
vt 0.159479 0.340572
vt 0.122005 0.250028
vt 0.249937 0.378019
vt 0.340525 0.340441
vt 0.377936 0.250093
vt 0.340545 0.159292
vt 0.250063 0.122019
vt 0.15951 0.15948
usemtl None
f 1/1/1 2/2/1 3/3/1
f 1/1/1 3/3/1 4/4/1
f 4/4/2 3/3/2 5/5/2
f 4/4/2 5/5/2 6/6/2
f 6/6/3 5/5/3 7/7/3
f 6/6/3 7/7/3 8/8/3
f 8/8/4 7/7/4 9/9/4
f 8/8/4 9/9/4 10/10/4
f 10/10/5 9/9/5 11/11/5
f 10/10/5 11/11/5 12/12/5
f 12/12/6 11/11/6 13/13/6
f 12/12/6 13/13/6 14/14/6
f 15/15/7 16/16/7 17/15/7
f 16/16/7 18/16/7 17/15/7
f 14/14/8 13/13/8 19/17/8
f 14/14/8 19/17/8 20/18/8
f 20/18/9 19/17/9 2/19/9
f 20/18/9 2/19/9 1/20/9
f 20/21/10 1/22/10 4/23/10
f 14/24/10 20/21/10 4/23/10
f 12/25/10 14/24/10 4/23/10
f 10/26/10 12/25/10 4/23/10
f 8/27/10 10/26/10 4/23/10
f 6/28/10 8/27/10 4/23/10
f 21/29/11 22/30/11 3/31/11
f 21/29/11 3/31/11 2/32/11
f 22/30/12 23/33/12 3/31/12
f 23/33/12 5/34/12 3/31/12
f 23/33/13 24/35/13 5/34/13
f 24/35/13 7/36/13 5/34/13
f 24/35/14 25/37/14 9/38/14
f 24/35/14 9/38/14 7/36/14
f 25/37/15 16/16/15 9/38/15
f 16/16/15 11/39/15 9/38/15
f 16/16/16 15/15/16 13/40/16
f 16/16/16 13/40/16 11/39/16
f 15/15/17 26/41/17 13/40/17
f 26/41/17 19/42/17 13/40/17
f 26/41/18 21/29/18 2/32/18
f 26/41/18 2/32/18 19/42/18
f 27/43/19 28/44/19 29/44/19
f 27/43/19 29/44/19 30/43/19
f 25/37/20 24/35/20 31/35/20
f 25/37/20 31/35/20 32/37/20
f 23/33/21 22/30/21 33/33/21
f 22/30/21 34/30/21 33/33/21
f 26/41/22 15/15/22 17/15/22
f 26/41/22 17/15/22 35/41/22
f 16/16/23 25/37/23 18/16/23
f 25/37/23 32/37/23 18/16/23
f 24/35/24 23/33/24 33/33/24
f 24/35/24 33/33/24 31/35/24
f 22/30/25 21/29/25 36/29/25
f 22/30/25 36/29/25 34/30/25
f 21/29/26 26/41/26 35/41/26
f 21/29/26 35/41/26 36/29/26
f 37/45/27 38/46/27 34/30/27
f 37/45/27 34/30/27 36/29/27
f 38/46/28 39/47/28 34/30/28
f 39/47/28 33/33/28 34/30/28
f 39/47/29 40/48/29 33/33/29
f 40/48/29 31/35/29 33/33/29
f 40/48/30 41/49/30 32/37/30
f 40/48/30 32/37/30 31/35/30
f 41/49/31 42/50/31 32/37/31
f 42/50/31 18/16/31 32/37/31
f 42/50/32 28/44/32 18/16/32
f 28/44/32 17/15/32 18/16/32
f 28/44/33 27/43/33 17/15/33
f 27/43/33 35/41/33 17/15/33
f 27/43/34 37/45/34 36/29/34
f 27/43/34 36/29/34 35/41/34
f 42/50/35 41/49/35 43/49/35
f 42/50/35 43/49/35 44/50/35
f 40/48/36 39/47/36 45/48/36
f 39/47/36 46/47/36 45/48/36
f 38/46/37 37/45/37 47/46/37
f 37/45/37 48/45/37 47/46/37
f 37/45/38 27/43/38 30/43/38
f 37/45/38 30/43/38 48/45/38
f 28/44/39 42/50/39 29/44/39
f 42/50/39 44/50/39 29/44/39
f 41/49/40 40/48/40 45/48/40
f 41/49/40 45/48/40 43/49/40
f 39/47/41 38/46/41 47/46/41
f 39/47/41 47/46/41 46/47/41
s off
g candle_holder_Cylinder.043_None
v 0.248432 1.20254 -1.21108
v 0.215549 1.20254 -1.19746
v 0.215549 1.25029 -1.19746
v 0.248432 1.25029 -1.21108
v 0.201928 1.20254 -1.16458
v 0.201928 1.25029 -1.16458
v 0.215549 1.20254 -1.1317
v 0.215549 1.25029 -1.1317
v 0.248432 1.20254 -1.11808
v 0.248432 1.25029 -1.11808
v 0.281315 1.20254 -1.1317
v 0.281315 1.25029 -1.1317
v 0.294935 1.20254 -1.16458
v 0.294935 1.25029 -1.16458
v 0.248432 1.2503 -1.18326
v 0.248432 1.25459 -1.18326
v 0.261642 1.25459 -1.17779
v 0.261642 1.2503 -1.17779
v 0.281315 1.20254 -1.19746
v 0.281315 1.25029 -1.19746
v 0.235221 1.2503 -1.17779
v 0.229749 1.2503 -1.16458
v 0.235221 1.2503 -1.15137
v 0.248432 1.2503 -1.1459
v 0.261642 1.2503 -1.15137
v 0.267115 1.2503 -1.16458
v 0.248432 1.25439 -1.18037
v 0.248432 1.24784 -1.18037
v 0.259595 1.24784 -1.17574
v 0.259595 1.25439 -1.17574
v 0.267115 1.25459 -1.16458
v 0.261642 1.25459 -1.15137
v 0.248432 1.25459 -1.1459
v 0.235221 1.25459 -1.15137
v 0.229749 1.25459 -1.16458
v 0.235221 1.25459 -1.17779
v 0.237268 1.25439 -1.17574
v 0.232644 1.25439 -1.16458
v 0.237268 1.25439 -1.15341
v 0.248432 1.25439 -1.14879
v 0.259595 1.25439 -1.15341
v 0.264219 1.25439 -1.16458
v 0.237268 1.24784 -1.17574
v 0.232644 1.24784 -1.16458
v 0.264219 1.24784 -1.16458
v 0.259595 1.24784 -1.15341
v 0.248432 1.24784 -1.14879
v 0.237268 1.24784 -1.15341
vn -0.3827 0 -0.9239
vn -0.9239 0 -0.3827
vn -0.9239 0 0.3827
vn -0.3827 0 0.9239
vn 0.3827 0 0.9239
vn 0.9239 0 0.3827
vn 0.3827 0 -0.9239
vn 0.9239 0 -0.3827
vn 0 -1 0
vn -0.0001 1 -0.0003
vn -0.0003 1 -0.0001
vn -0.0003 1 0.0001
vn -0.0001 1 0.0003
vn 0.0001 1 0.0003
vn 0.0003 1 0.0001
vn 0.0003 1 -0.0001
vn 0.0001 1 -0.0003
vn 0.029 0.9971 0.07
vn 0.07 0.9971 0.029
vn 0.07 0.9971 -0.029
vn 0.029 0.9971 -0.07
vn -0.029 0.9971 -0.07
vn -0.07 0.9971 -0.029
vn -0.07 0.9971 0.029
vn -0.029 0.9971 0.07
vn 0 1 0
vt 0.533267 0.707976
vt 0.469286 0.707976
vt 0.469286 0.963899
vt 0.533267 0.963899
vt 0.405305 0.707976
vt 0.405305 0.963899
vt 0.341325 0.707976
vt 0.341325 0.963899
vt 0.277344 0.707976
vt 0.277344 0.963899
vt 0.213363 0.707976
vt 0.213363 0.963899
vt 0.149382 0.707976
vt 0.149382 0.963899
vt 0.746094 0.309907
vt 0.681636 0.283208
vt 0.085401 0.707976
vt 0.085401 0.963899
vt 0.021421 0.707976
vt 0.021421 0.963899
vt 0.919706 0.419706
vt 0.75 0.49
vt 0.580294 0.419706
vt 0.99 0.25
vt 0.919706 0.080294
vt 0.75 0.01
vt 0.580294 0.080294
vt 0.51 0.25
vt 0.746094 0.358786
vt 0.810551 0.283208
vt 0.845114 0.31777
vt 0.886129 0.21875
vt 0.837251 0.21875
vt 0.810551 0.154292
vt 0.845114 0.11973
vt 0.746094 0.078714
vt 0.746094 0.127593
vt 0.647074 0.11973
vt 0.681636 0.154292
vt 0.654937 0.21875
vt 0.606058 0.21875
vt 0.647074 0.31777
vt 0.25 0.395838
vt 0.146877 0.353123
vt 0.746094 0.303844
vt 0.806264 0.27892
vt 0.831187 0.21875
vt 0.806264 0.15858
vt 0.746094 0.133656
vt 0.685923 0.15858
vt 0.661 0.21875
vt 0.685924 0.27892
vt 0.395838 0.25
vt 0.353123 0.353123
vt 0.104162 0.25
usemtl None
f 49/51/42 50/52/42 51/53/42
f 49/51/42 51/53/42 52/54/42
f 50/52/43 53/55/43 54/56/43
f 50/52/43 54/56/43 51/53/43
f 53/55/44 55/57/44 56/58/44
f 53/55/44 56/58/44 54/56/44
f 55/57/45 57/59/45 58/60/45
f 55/57/45 58/60/45 56/58/45
f 57/59/46 59/61/46 60/62/46
f 57/59/46 60/62/46 58/60/46
f 59/61/47 61/63/47 62/64/47
f 59/61/47 62/64/47 60/62/47
f 63/65/48 64/65/48 65/66/48
f 63/65/48 65/66/48 66/66/48
f 61/63/49 67/67/49 68/68/49
f 61/63/49 68/68/49 62/64/49
f 67/67/48 49/69/48 52/70/48
f 67/67/48 52/70/48 68/68/48
f 50/71/50 49/72/50 67/73/50
f 53/74/50 50/71/50 67/73/50
f 55/75/50 53/74/50 67/73/50
f 57/76/50 55/75/50 67/73/50
f 59/77/50 57/76/50 67/73/50
f 61/78/50 59/77/50 67/73/50
f 63/65/51 52/79/51 69/80/51
f 52/79/51 51/81/51 69/80/51
f 69/80/52 51/81/52 54/82/52
f 69/80/52 54/82/52 70/83/52
f 70/83/53 54/82/53 71/84/53
f 54/82/53 56/85/53 71/84/53
f 71/84/54 56/85/54 58/86/54
f 71/84/54 58/86/54 72/87/54
f 72/87/55 58/86/55 60/88/55
f 72/87/55 60/88/55 73/89/55
f 73/89/56 60/88/56 74/90/56
f 60/88/56 62/91/56 74/90/56
f 74/90/57 62/91/57 68/92/57
f 74/90/57 68/92/57 66/66/57
f 66/66/58 68/92/58 63/65/58
f 68/92/58 52/79/58 63/65/58
f 75/93/45 76/93/45 77/94/45
f 75/93/45 77/94/45 78/94/45
f 74/90/47 79/90/47 80/89/47
f 74/90/47 80/89/47 73/89/47
f 72/87/45 81/87/45 82/84/45
f 72/87/45 82/84/45 71/84/45
f 70/83/43 83/83/43 84/80/43
f 70/83/43 84/80/43 69/80/43
f 66/66/49 65/66/49 79/90/49
f 66/66/49 79/90/49 74/90/49
f 73/89/46 80/89/46 81/87/46
f 73/89/46 81/87/46 72/87/46
f 71/84/44 82/84/44 83/83/44
f 71/84/44 83/83/44 70/83/44
f 69/80/42 84/80/42 64/65/42
f 69/80/42 64/65/42 63/65/42
f 75/95/59 64/65/59 85/96/59
f 64/65/59 84/80/59 85/96/59
f 85/96/60 84/80/60 83/83/60
f 85/96/60 83/83/60 86/97/60
f 86/97/61 83/83/61 87/98/61
f 83/83/61 82/84/61 87/98/61
f 87/98/62 82/84/62 81/87/62
f 87/98/62 81/87/62 88/99/62
f 88/99/63 81/87/63 89/100/63
f 81/87/63 80/89/63 89/100/63
f 89/100/64 80/89/64 79/90/64
f 89/100/64 79/90/64 90/101/64
f 90/101/65 79/90/65 78/102/65
f 79/90/65 65/66/65 78/102/65
f 78/102/66 65/66/66 64/65/66
f 78/102/66 64/65/66 75/95/66
f 76/95/67 91/96/67 92/97/67
f 77/102/67 76/95/67 92/97/67
f 93/101/67 77/102/67 92/97/67
f 94/100/67 93/101/67 92/97/67
f 95/99/67 94/100/67 92/97/67
f 96/98/67 95/99/67 92/97/67
f 90/101/43 93/101/43 94/100/43
f 90/101/43 94/100/43 89/100/43
f 88/99/48 95/99/48 96/98/48
f 88/99/48 96/98/48 87/98/48
f 86/103/47 92/103/47 91/104/47
f 86/103/47 91/104/47 85/104/47
f 78/94/44 77/94/44 93/105/44
f 78/94/44 93/105/44 90/105/44
f 89/100/42 94/100/42 95/99/42
f 89/100/42 95/99/42 88/99/42
f 87/98/49 96/98/49 92/97/49
f 87/98/49 92/97/49 86/97/49
f 85/96/46 91/96/46 76/95/46
f 85/96/46 76/95/46 75/95/46
s off
